<?xml version="1.0" standalone="no"?>
<!DOCTYPE svg PUBLIC "-//W3C//DTD SVG 20010904//EN"
 "http://www.w3.org/TR/2001/REC-SVG-20010904/DTD/svg10.dtd">
<svg version="1.0" xmlns="http://www.w3.org/2000/svg"
 width="512.000000pt" height="512.000000pt" viewBox="0 0 512.000000 512.000000"
 preserveAspectRatio="xMidYMid meet">

<g transform="translate(0.000000,512.000000) scale(0.100000,-0.100000)"
fill="#000000" stroke="none">
<path d="M1207 4791 c-13 -64 -70 -193 -123 -277 -109 -174 -249 -304 -424
-393 -178 -92 -333 -126 -541 -120 l-122 4 6 -100 c6 -124 46 -253 114 -373
57 -101 144 -199 198 -223 88 -40 254 -13 400 67 345 187 737 611 849 916 30
82 35 206 11 266 -27 68 -179 190 -300 242 -60 26 -61 25 -68 -9z"/>
<path d="M3673 4709 c-148 -111 -168 -146 -161 -286 5 -105 39 -194 125 -330
105 -168 169 -240 551 -622 348 -348 385 -382 399 -368 15 14 13 24 -16 107
-18 50 -31 93 -29 95 2 3 20 0 39 -5 56 -16 159 -12 204 9 113 51 260 290 300
486 19 94 22 253 5 346 l-12 66 -74 -38 c-447 -224 -1008 -11 -1194 455 -17
41 -33 89 -36 106 -4 16 -12 30 -20 30 -7 0 -44 -23 -81 -51z"/>
<path d="M2560 3705 l0 -205 25 0 25 0 0 205 0 205 -25 0 -25 0 0 -205z"/>
<path d="M3432 3347 c-136 -137 -142 -144 -124 -160 17 -16 25 -9 162 128 124
124 142 146 131 159 -8 9 -16 16 -20 16 -3 0 -71 -64 -149 -143z"/>
<path d="M1671 3376 l-23 -25 20 -28 c11 -15 50 -57 86 -93 l66 -64 30 29 30
29 -87 88 c-48 48 -90 88 -94 88 -3 0 -16 -11 -28 -24z"/>
<path d="M1300 2475 l0 -45 125 0 125 0 0 45 0 45 -125 0 -125 0 0 -45z"/>
<path d="M3750 2475 l0 -45 130 0 130 0 0 45 0 45 -130 0 -130 0 0 -45z"/>
<path d="M1697 1612 c-75 -75 -137 -142 -137 -148 0 -7 6 -16 13 -22 19 -16
313 278 295 296 -7 7 -17 12 -23 12 -5 0 -72 -62 -148 -138z"/>
<path d="M2560 1245 l0 -205 25 0 25 0 0 205 0 205 -25 0 -25 0 0 -205z"/>
<path d="M1210 823 c0 -5 56 -64 125 -133 l125 -125 -167 -168 -168 -168 195
3 c173 3 199 5 232 23 38 21 248 211 248 225 0 4 -12 11 -27 15 -80 20 -350
174 -485 277 -43 32 -78 55 -78 51z"/>
<path d="M3540 570 c-41 -21 -101 -48 -132 -61 -32 -12 -58 -24 -58 -28 0 -14
207 -210 240 -227 30 -16 63 -19 230 -22 l195 -3 -190 190 c-104 105 -194 191
-200 191 -5 -1 -44 -18 -85 -40z"/>
</g>
</svg>
